<?xml version="1.0" standalone="no"?>
<!DOCTYPE svg PUBLIC "-//W3C//DTD SVG 20010904//EN"
 "http://www.w3.org/TR/2001/REC-SVG-20010904/DTD/svg10.dtd">
<svg version="1.0" xmlns="http://www.w3.org/2000/svg"
 width="2173.000000pt" height="645.000000pt" viewBox="0 0 2173.000000 645.000000"
 preserveAspectRatio="xMidYMid meet">

<g transform="translate(0.000000,645.000000) scale(0.100000,-0.100000)"
fill="#fff" stroke="none">
<path d="M2277 6439 c-291 -33 -562 -253 -681 -552 -59 -147 -70 -209 -70
-392 -1 -191 15 -273 79 -411 l33 -72 -447 -4 -446 -4 -90 -28 c-328 -100
-566 -373 -637 -729 -6 -34 -12 -125 -11 -202 0 -118 4 -155 27 -240 46 -173
119 -305 241 -434 113 -119 229 -192 380 -237 55 -17 133 -19 1024 -24 l964
-5 263 -505 262 -505 -727 -5 -726 -5 -70 -23 c-92 -31 -205 -92 -278 -150
-131 -105 -248 -290 -303 -477 -35 -122 -44 -337 -20 -468 59 -312 261 -578
523 -687 149 -62 85 -60 1509 -60 l1301 0 40 43 c56 60 76 119 71 204 -4 67
-9 78 -289 618 l-285 550 741 5 c843 6 804 2 988 97 77 39 109 64 192 147 121
122 187 228 238 383 76 229 76 427 0 656 -47 143 -118 260 -218 362 -114 117
-207 175 -360 226 l-70 24 -1258 5 -1258 5 -260 494 c-142 272 -259 498 -259
502 0 5 846 9 1903 9 2072 0 1953 -3 2109 58 206 80 398 272 489 490 60 145
81 251 81 407 0 119 -4 155 -26 240 -30 115 -88 242 -150 329 -57 80 -207 222
-279 265 -81 48 -208 89 -312 101 -107 12 -3822 12 -3928 -1z m3985 -481 c105
-49 197 -154 239 -274 25 -73 35 -218 20 -299 -25 -138 -131 -284 -248 -342
l-58 -28 -1975 0 -1975 0 -55 29 c-166 86 -273 318 -242 524 30 196 183 379
346 412 22 4 907 7 1966 6 l1925 -1 57 -27z m-4122 -1896 l256 -487 -795 -3
c-889 -2 -852 -5 -953 68 -67 47 -148 152 -179 229 -31 79 -38 245 -14 326 51
178 175 309 321 344 22 5 280 9 574 10 l535 1 255 -488z m3282 -1030 c114 -56
207 -176 243 -313 19 -71 19 -210 0 -284 -35 -132 -125 -249 -238 -308 l-62
-32 -405 -6 c-223 -4 -605 -7 -850 -8 l-445 -1 -252 488 c-139 269 -253 491
-253 495 0 4 494 6 1098 5 l1097 -3 67 -33z m-1764 -1885 c144 -272 262 -497
262 -501 0 -3 -483 -5 -1072 -4 l-1073 3 -68 32 c-171 81 -290 296 -272 493 9
105 23 155 62 231 42 81 118 158 203 204 l65 35 815 0 815 0 263 -493z"/>
<path d="M9295 5734 c-248 -27 -441 -110 -583 -252 -142 -142 -222 -311 -269
-567 -13 -74 -17 -195 -22 -699 l-6 -610 -320 -135 c-176 -75 -326 -140 -332
-144 -10 -6 -13 -66 -13 -243 0 -181 3 -234 13 -234 6 1 156 63 332 139 l320
139 3 -1049 2 -1049 250 0 250 0 0 1158 0 1157 580 250 c320 138 585 251 590
253 6 2 11 -695 12 -1920 l3 -1923 448 -3 447 -2 0 723 0 724 93 -92 c277
-276 515 -377 892 -376 284 0 513 70 751 230 325 217 542 567 649 1046 78 352
83 553 19 859 -71 337 -208 608 -417 824 -160 165 -297 258 -495 337 -312 123
-671 132 -956 23 -151 -58 -366 -225 -504 -393 l-41 -50 -1 228 0 227 -445 0
-445 0 0 -22 c-1 -22 -1 -22 -12 -3 -6 11 -12 21 -13 22 -1 2 -260 -107 -576
-241 l-574 -243 -8 171 c-4 94 -6 315 -4 491 3 292 5 327 25 400 61 223 197
364 390 404 127 27 371 8 560 -44 51 -14 95 -25 98 -25 2 0 4 97 4 215 l0 214
-68 20 c-154 46 -263 63 -427 66 -88 2 -178 1 -200 -1z m2630 -2169 c91 -21
155 -55 259 -138 138 -109 242 -278 292 -472 21 -79 28 -132 31 -250 6 -185
-8 -277 -67 -428 -94 -241 -254 -410 -449 -471 -235 -74 -445 -51 -626 69
-157 104 -274 267 -338 470 -40 127 -50 218 -44 378 9 216 57 375 163 534 129
194 263 282 491 323 65 12 203 5 288 -15z"/>
<path d="M17590 4345 c-393 -57 -671 -203 -857 -450 -166 -220 -225 -552 -147
-822 46 -162 138 -296 279 -410 193 -155 401 -250 721 -328 481 -117 680 -196
750 -296 24 -36 29 -52 29 -104 0 -52 -5 -69 -30 -105 -59 -85 -145 -117 -336
-127 -264 -13 -591 68 -894 222 -130 66 -245 136 -245 150 0 6 -46 44 -101 85
-117 86 -268 225 -326 302 l-41 53 -5 340 c-4 235 -10 365 -20 420 -88 481
-324 804 -690 946 -246 95 -563 133 -909 110 -290 -19 -547 -77 -828 -184
-183 -70 -193 -75 -186 -92 3 -8 53 -164 112 -347 58 -183 108 -336 110 -340
3 -3 57 11 122 33 148 50 354 104 457 120 126 19 424 16 520 -5 117 -25 234
-85 300 -152 94 -96 155 -257 155 -409 l0 -54 -86 29 c-210 71 -426 104 -689
104 -396 0 -707 -84 -930 -251 -192 -144 -312 -342 -351 -583 -17 -101 -18
-278 -3 -387 45 -334 307 -647 629 -752 162 -52 253 -65 470 -65 161 -1 223 3
288 17 231 51 401 141 574 306 l88 83 0 -181 0 -181 435 0 435 0 0 221 0 220
23 -6 c12 -4 74 -38 138 -76 431 -256 825 -376 1299 -395 179 -8 344 5 534 42
232 45 409 118 563 232 l81 61 124 -64 c382 -197 815 -294 1258 -282 444 12
788 122 1009 324 214 195 300 426 304 813 1 111 -2 133 -24 196 -61 169 -228
345 -450 475 -117 68 -266 125 -619 235 -184 58 -361 116 -393 129 -138 57
-262 145 -287 205 -33 79 23 194 114 236 102 47 258 57 422 29 149 -26 433
-126 614 -216 89 -44 164 -79 165 -77 10 10 385 631 385 637 0 12 -176 107
-287 156 -299 131 -647 211 -969 222 -579 20 -998 -151 -1234 -502 -108 -161
-147 -280 -157 -481 -10 -209 21 -343 112 -490 108 -173 305 -325 570 -442 69
-30 358 -122 540 -172 361 -99 480 -152 545 -241 26 -36 30 -51 30 -104 0 -50
-5 -70 -26 -101 -39 -58 -72 -81 -149 -106 -62 -20 -90 -23 -250 -23 -189 0
-249 9 -438 61 -158 44 -381 142 -558 245 l-65 38 -11 94 c-22 187 -79 302
-223 447 -204 206 -332 267 -1030 486 -337 106 -496 188 -546 285 -32 63 -3
166 62 215 77 59 241 85 412 65 200 -24 381 -80 631 -197 63 -30 117 -54 121
-54 4 0 10 44 13 98 8 126 38 244 87 349 40 86 110 192 149 227 11 11 21 22
21 26 0 13 -172 87 -305 133 -145 50 -292 86 -470 118 -156 27 -493 35 -635
14z m-2330 -1889 c90 -21 195 -54 263 -81 15 -6 17 -22 17 -125 0 -148 -11
-207 -56 -298 -64 -132 -195 -230 -374 -282 -103 -30 -336 -39 -433 -16 -140
33 -246 107 -294 204 -26 53 -28 66 -28 182 0 117 2 129 29 187 60 131 205
220 411 253 106 16 346 4 465 -24z"/>
</g>
</svg>
